<svg height='100px' width='100px'  fill="#FFDD01" xmlns="http://www.w3.org/2000/svg" xmlns:xlink="http://www.w3.org/1999/xlink" version="1.1" x="0px" y="0px" viewBox="0 0 64 64" style="enable-background:new 0 0 64 64;" xml:space="preserve"><g><g><path d="M32,63C14.91,63,1.006,49.094,1.006,32S14.91,1,32,1s30.994,13.906,30.994,31S49.09,63,32,63z M32,2.5    C15.737,2.5,2.506,15.733,2.506,32S15.737,61.5,32,61.5S61.494,48.267,61.494,32S48.263,2.5,32,2.5z"></path><g><g><path d="M38.682,14.4H25.318c-0.322,0-0.584-0.26-0.584-0.581v-6.07c0-0.321,0.261-0.581,0.584-0.581h13.365      c0.322,0,0.584,0.26,0.584,0.581v6.07C39.266,14.139,39.005,14.4,38.682,14.4z"></path><path d="M32,18.882c-0.322,0-0.584-0.26-0.584-0.581v-4.482c0-0.321,0.261-0.581,0.584-0.581s0.584,0.26,0.584,0.581v4.482      C32.584,18.622,32.322,18.882,32,18.882z"></path><path d="M32,25.671c-1.343,0-2.607-0.729-3.298-1.901c-0.163-0.277-0.07-0.634,0.208-0.796c0.277-0.164,0.635-0.07,0.799,0.207      c0.489,0.831,1.346,1.328,2.291,1.328c1.474,0,2.673-1.23,2.673-2.742c0-1.512-1.199-2.741-2.673-2.741      c-0.322,0-0.584-0.26-0.584-0.581s0.261-0.581,0.584-0.581c2.118,0,3.84,1.751,3.84,3.903S34.118,25.671,32,25.671z"></path></g><path d="M47.562,37.534H16.438c-0.322,0-0.584,0.26-0.584,0.581v16.137c0,0.321,0.261,0.581,0.584,0.581h31.123     c0.322,0,0.584-0.26,0.584-0.581V38.115C48.145,37.794,47.884,37.534,47.562,37.534z M21.767,51.218     c0,0.321-0.261,0.581-0.584,0.581c-0.322,0-0.584-0.26-0.584-0.581V41.148c0-0.321,0.261-0.581,0.584-0.581     c0.322,0,0.584,0.26,0.584,0.581V51.218z M27.175,51.218c0,0.321-0.261,0.581-0.584,0.581s-0.584-0.26-0.584-0.581V41.148     c0-0.321,0.261-0.581,0.584-0.581s0.584,0.26,0.584,0.581V51.218z M32.584,51.218c0,0.321-0.261,0.581-0.584,0.581     s-0.584-0.26-0.584-0.581V41.148c0-0.321,0.261-0.581,0.584-0.581s0.584,0.26,0.584,0.581V51.218z M37.992,51.218     c0,0.321-0.261,0.581-0.584,0.581s-0.584-0.26-0.584-0.581V41.148c0-0.321,0.261-0.581,0.584-0.581s0.584,0.26,0.584,0.581     V51.218z M43.4,51.218c0,0.321-0.261,0.581-0.584,0.581s-0.584-0.26-0.584-0.581V41.148c0-0.321,0.261-0.581,0.584-0.581     s0.584,0.26,0.584,0.581V51.218z"></path><g><path d="M20.728,38.698c-0.139,0-0.278-0.049-0.389-0.148c-0.24-0.215-0.26-0.582-0.044-0.821l11.412-12.674      c0.215-0.238,0.583-0.259,0.824-0.045c0.24,0.215,0.26,0.582,0.044,0.821L21.162,38.505      C21.047,38.633,20.888,38.698,20.728,38.698z"></path><path d="M43.771,38.698c-0.158,0-0.316-0.064-0.431-0.189L31.71,25.835c-0.217-0.237-0.201-0.605,0.037-0.821      c0.237-0.217,0.606-0.201,0.824,0.037l11.631,12.674c0.217,0.237,0.201,0.605-0.037,0.821      C44.053,38.648,43.912,38.698,43.771,38.698z"></path></g></g></g></g></svg>